<?xml version="1.0" encoding="UTF-8" standalone="no"?>
<!-- Created with Inkscape (http://www.inkscape.org/) -->

<svg
   xmlns:dc="http://purl.org/dc/elements/1.1/"
   xmlns:cc="http://creativecommons.org/ns#"
   xmlns:rdf="http://www.w3.org/1999/02/22-rdf-syntax-ns#"
   xmlns:svg="http://www.w3.org/2000/svg"
   xmlns="http://www.w3.org/2000/svg"
   xmlns:sodipodi="http://sodipodi.sourceforge.net/DTD/sodipodi-0.dtd"
   xmlns:inkscape="http://www.inkscape.org/namespaces/inkscape"
   width="96"
   height="96"
   viewBox="0 0 96.000001 96.000002"
   id="svg3513"
   version="1.1"
   inkscape:version="0.91 r13725"
   sodipodi:docname="damilogo.svg">
  <defs
     id="defs3515" />
  <sodipodi:namedview
     id="base"
     pagecolor="#ffffff"
     bordercolor="#666666"
     borderopacity="1.0"
     inkscape:pageopacity="0.0"
     inkscape:pageshadow="2"
     inkscape:zoom="2.3091729"
     inkscape:cx="64.244105"
     inkscape:cy="34.951456"
     inkscape:document-units="px"
     inkscape:current-layer="layer1"
     showgrid="false"
     units="px"
     inkscape:window-width="1366"
     inkscape:window-height="704"
     inkscape:window-x="0"
     inkscape:window-y="27"
     inkscape:window-maximized="1" />
  <metadata
     id="metadata3518">
    <rdf:RDF>
      <cc:Work
         rdf:about="">
        <dc:format>image/svg+xml</dc:format>
        <dc:type
           rdf:resource="http://purl.org/dc/dcmitype/StillImage" />
        <dc:title></dc:title>
      </cc:Work>
    </rdf:RDF>
  </metadata>
  <g
     inkscape:label="Capa 1"
     inkscape:groupmode="layer"
     id="layer1"
     transform="translate(0,-956.36216)">
    <g
       transform="matrix(0.99763145,0,0,1,-149.5187,672.51517)"
       id="g3486">
      <path
         sodipodi:nodetypes="cccc"
         inkscape:connector-curvature="0"
         id="path3585"
         d="m 198.53096,380.2839 c 32.56914,2.84968 56.08419,-25.16711 36.3607,-46.34702 2.2777,-24.98165 7.341,-48.94279 -36.3607,-49.45179 -0.88578,65.71618 0.32446,65.77185 0,95.79881 z"
         style="fill:#d38d5f;fill-opacity:1;fill-rule:evenodd;stroke:none;stroke-width:1px;stroke-linecap:butt;stroke-linejoin:miter;stroke-opacity:1" />
      <path
         sodipodi:nodetypes="ccacssc"
         inkscape:connector-curvature="0"
         id="path3589"
         d="m 198.53096,378.29019 c 43.23517,6.61904 29.94439,-57.15726 8.00469,-55.98684 0,0 1.36095,-2.2222 1.05781,-3.36011 -0.26202,-0.98363 -2.18789,-1.87608 -2.18789,-1.87608 1.47481,-0.79751 12.65253,-25.89999 7.91289,-28.70116 0,0 -14.73156,-5.22414 -14.7875,-1.60357 -1.27165,82.29961 0.85359,82.92018 0,91.52776 z"
         style="fill:#e9c6af;fill-rule:evenodd;stroke:#e9c6af;stroke-width:1.83354366px;stroke-linecap:butt;stroke-linejoin:miter;stroke-opacity:1" />
      <path
         style="fill:#502d16;fill-opacity:1;fill-rule:evenodd;stroke:none;stroke-width:1px;stroke-linecap:butt;stroke-linejoin:miter;stroke-opacity:1"
         d="m 232.61328,335.48738 c -0.55208,-4.45709 5.26287,-8.12585 -3.95938,-20.12924 -1.45598,-1.83593 6.42148,1.30953 5.33728,-1.14026 -0.82371,-1.86118 -7.8791,-4.0012 -9.17454,-5.74602 l 0.09,-3.54982 3.01282,-0.70646 -0.4817,-9.50984 c 0,0 1.99658,-1.68643 5.76556,0.0237 3.76898,1.71016 12.61687,0.15797 13.40104,14.46504 0.78416,14.30708 -10.0132,23.97766 -13.99106,26.29287 z"
         id="path3591"
         inkscape:connector-curvature="0"
         sodipodi:nodetypes="ccscccczzcc" />
      <path
         style="fill:#d38d5f;fill-opacity:1;fill-rule:evenodd;stroke:none;stroke-width:1px;stroke-linecap:butt;stroke-linejoin:miter;stroke-opacity:1"
         d="m 198.53096,380.2839 c -32.56915,2.84968 -56.08419,-25.16711 -36.36069,-46.34702 -2.2777,-24.98165 -7.34101,-48.94279 36.36069,-49.45179 0.88578,65.71618 -0.32445,65.77185 0,95.79881 z"
         id="path3458"
         inkscape:connector-curvature="0"
         sodipodi:nodetypes="cccc" />
      <path
         style="fill:#e9c6af;fill-rule:evenodd;stroke:#e9c6af;stroke-width:1.83354366px;stroke-linecap:butt;stroke-linejoin:miter;stroke-opacity:1"
         d="m 198.53096,378.29019 c -43.23518,6.61904 -29.94439,-57.15726 -8.00468,-55.98684 0,0 -1.36095,-2.2222 -1.05781,-3.36011 0.26202,-0.98363 2.18789,-1.87608 2.18789,-1.87608 -1.47481,-0.79751 -12.65253,-25.89999 -7.91289,-28.70116 0,0 14.73155,-5.22414 14.78749,-1.60357 1.27165,82.29961 -0.85359,82.92018 0,91.52776 z"
         id="path3460"
         inkscape:connector-curvature="0"
         sodipodi:nodetypes="ccacssc" />
      <path
         sodipodi:nodetypes="ccscccczzcc"
         inkscape:connector-curvature="0"
         id="path3462"
         d="m 164.44864,335.48738 c 0.55208,-4.45709 -5.26287,-8.12585 3.95938,-20.12924 1.45599,-1.83593 -6.42148,1.30953 -5.33727,-1.14026 0.82371,-1.86118 7.87909,-4.0012 9.17454,-5.74602 l -0.09,-3.54982 -3.01282,-0.70646 0.48169,-9.50984 c 0,0 -1.99658,-1.68643 -5.76556,0.0237 -3.76898,1.71016 -12.61687,0.15797 -13.40103,14.46504 -0.78417,14.30708 10.0132,23.97766 13.99106,26.29287 z"
         style="fill:#502d16;fill-opacity:1;fill-rule:evenodd;stroke:none;stroke-width:1px;stroke-linecap:butt;stroke-linejoin:miter;stroke-opacity:1" />
      <path
         inkscape:connector-curvature="0"
         id="path3619"
         d="m 206.89577,342.99247 c 0,0 -6.30519,1.38371 -8.21289,6.82813 5.65912,-1.33856 8.6657,-6.81724 8.21289,-6.82813 z m -18.125,0.32813 c -0.45212,0.0298 2.73543,5.37948 8.43555,6.48046 -2.08929,-5.36082 -8.43555,-6.48046 -8.43555,-6.48046 z m 26.51563,19.125 c -0.51257,0.87573 -1.11515,1.64115 -1.77734,2.31054 0.66469,-0.66294 1.26577,-1.42976 1.77734,-2.31054 z m -1.77734,2.31054 c -4.71495,4.70251 -12.67535,4.05145 -15.54883,0.002 -5.3e-4,-7.5e-4 -0.001,-0.001 -0.002,-0.002 l 0,-0.002 -0.0215,-0.0547 -0.0117,0.0137 c -0.0501,-0.072 -0.11332,-0.13485 -0.16016,-0.20898 0.046,0.0773 0.0975,0.1496 0.14649,0.22461 l -0.40039,0.4707 0.0742,0.0371 c -0.84235,1.0083 -1.83882,1.73767 -2.92578,2.22266 1.09121,-0.4835 2.08815,-1.21288 2.92773,-2.22266 l 0.69531,0.34766 -0.28125,-0.71875 c 2.95237,4.28196 10.81789,4.63152 15.50782,-0.10938 z m -32.91993,-2.27734 c 0.38301,0.69813 0.87831,1.35404 1.45703,1.95703 -0.57724,-0.60251 -1.07194,-1.25982 -1.45703,-1.95703 z m 2.51563,2.91797 c 2.95008,2.38644 7.27727,3.56082 10.84961,2.34179 -3.5668,1.20672 -7.90171,0.0347 -10.84961,-2.34179 z m 11.44531,2.11328 c -0.1875,0.0798 -0.37793,0.15298 -0.57031,0.21875 0.19249,-0.0664 0.38261,-0.13827 0.57031,-0.21875 z"
         style="fill:#6c5353;fill-rule:evenodd;stroke:#6c5353;stroke-width:0.53043556px;stroke-linecap:butt;stroke-linejoin:miter;stroke-opacity:1" />
      <path
         style="fill:#6c5353;fill-rule:evenodd;stroke:#6c5353;stroke-width:0.53043556px;stroke-linecap:butt;stroke-linejoin:miter;stroke-opacity:1"
         d="m 188.97658,342.99247 c 0,0 6.30519,1.38371 8.21289,6.82813 -5.65912,-1.33856 -8.6657,-6.81724 -8.21289,-6.82813 z m 18.125,0.32813 c 0.45212,0.0298 -2.73543,5.37948 -8.43555,6.48046 2.08929,-5.36082 8.43555,-6.48046 8.43555,-6.48046 z m -26.51563,19.125 c 0.51257,0.87573 1.11515,1.64115 1.77734,2.31054 -0.66469,-0.66294 -1.26577,-1.42976 -1.77734,-2.31054 z m 1.77734,2.31054 c 4.71495,4.70251 12.67535,4.05145 15.54883,0.002 5.3e-4,-7.5e-4 0.001,-0.001 0.002,-0.002 l 0,-0.002 0.0215,-0.0547 0.0117,0.0137 c 0.0501,-0.072 0.11332,-0.13485 0.16016,-0.20898 -0.046,0.0773 -0.0975,0.1496 -0.14649,0.22461 l 0.40039,0.4707 -0.0742,0.0371 c 0.84235,1.0083 1.83882,1.73767 2.92578,2.22266 -1.09121,-0.4835 -2.08815,-1.21288 -2.92773,-2.22266 l -0.69531,0.34766 0.28125,-0.71875 c -2.95237,4.28196 -10.81789,4.63152 -15.50782,-0.10938 z m 32.91993,-2.27734 c -0.38301,0.69813 -0.87831,1.35404 -1.45703,1.95703 0.57724,-0.60251 1.07194,-1.25982 1.45703,-1.95703 z m -2.51563,2.91797 c -2.95008,2.38644 -7.27727,3.56082 -10.84961,2.34179 3.5668,1.20672 7.90171,0.0347 10.84961,-2.34179 z m -11.44531,2.11328 c 0.1875,0.0798 0.37793,0.15298 0.57031,0.21875 -0.19249,-0.0664 -0.38261,-0.13827 -0.57031,-0.21875 z"
         id="path3484"
         inkscape:connector-curvature="0" />
    </g>
  </g>
</svg>
